<svg xmlns="http://www.w3.org/2000/svg" width="24" height="24" viewBox="0 0 24 24">
    <g id="Group_11" data-name="Group 11" transform="translate(-3125 759)">
        <path id="Icon_awesome-facebook" data-name="Icon awesome-facebook" d="M20.1,10.333a9.771,9.771,0,1,0-11.3,9.652V13.158H6.324V10.333H8.806V8.18a3.447,3.447,0,0,1,3.69-3.8,15.037,15.037,0,0,1,2.187.191v2.4H13.452A1.412,1.412,0,0,0,11.86,8.5v1.834h2.71l-.433,2.824H11.86v6.828A9.774,9.774,0,0,0,20.1,10.333Z" transform="translate(3126.771 -757.219)" fill="#f9f9f9"/>
        <g id="Group_10" data-name="Group 10" transform="translate(25 25)">
            <g id="cancel-24px" transform="translate(3100 -784)">
                <path id="Path_37" data-name="Path 37" d="M0,0H24V24H0Z" fill="none" opacity="0.87"/>
            </g>
        </g>
    </g>
</svg>